<svg width="1173" height="95" viewBox="0 0 1173 95" fill="none" xmlns="http://www.w3.org/2000/svg">
<path fill-rule="evenodd" clip-rule="evenodd" d="M-478 10C-478 4.47715 -473.523 0 -468 0H1432C1437.52 0 1442 4.47715 1442 10V94.99C1442 94.9955 1442 95 1441.99 95V95C1441.98 95 1441.98 94.9957 1441.98 94.9903C1441.45 81.6513 1430.47 71 1417 71H1158.52C1153.46 71 1149.3 67.1673 1147.81 62.3261C1141.54 41.8723 1122.51 27 1100 27H73C50.492 27 31.4576 41.8723 25.1878 62.3261C23.7038 67.1673 19.5445 71 14.481 71H-453C-466.469 71 -477.45 81.6513 -477.98 94.9903C-477.98 94.9957 -477.985 95 -477.99 95V95C-477.996 95 -478 94.9955 -478 94.99V10Z" fill="#7027E2"/>
</svg>
