<svg width="68" height="71" viewBox="0 0 68 71" fill="none" xmlns="http://www.w3.org/2000/svg">
<path fill-rule="evenodd" clip-rule="evenodd" d="M-484 10C-484 4.47715 -479.523 0 -474 0H1426C1431.52 0 1436 4.47715 1436 10V94.99C1436 94.9955 1436 95 1435.99 95V95C1435.98 95 1435.98 94.9957 1435.98 94.9903C1435.45 81.6513 1424.47 71 1411 71H1152.52C1147.46 71 1143.3 67.1673 1141.81 62.3261C1135.54 41.8723 1116.51 27 1094 27H67C44.492 27 25.4576 41.8723 19.1878 62.3261C17.7038 67.1673 13.5445 71 8.48097 71H-459C-472.469 71 -483.45 81.6513 -483.98 94.9903C-483.98 94.9957 -483.985 95 -483.99 95V95C-483.996 95 -484 94.9955 -484 94.99V10Z" fill="#7027E2"/>
</svg>
