<svg width="68" height="71" viewBox="0 0 68 71" fill="none" xmlns="http://www.w3.org/2000/svg">
<path fill-rule="evenodd" clip-rule="evenodd" d="M-1577 10C-1577 4.47715 -1572.52 0 -1567 0H333C338.523 0 343 4.47715 343 10V94.99C343 94.9955 342.996 95 342.99 95V95C342.985 95 342.98 94.9957 342.98 94.9903C342.45 81.6513 331.469 71 318 71H59.519C54.4555 71 50.2962 67.1673 48.8122 62.3261C42.5424 41.8723 23.508 27 1 27H-1026C-1048.51 27 -1067.54 41.8723 -1073.81 62.3261C-1075.3 67.1673 -1079.46 71 -1084.52 71H-1552C-1565.47 71 -1576.45 81.6513 -1576.98 94.9903C-1576.98 94.9957 -1576.98 95 -1576.99 95V95C-1577 95 -1577 94.9955 -1577 94.99V10Z" fill="#7027E2"/>
</svg>
